<svg width="40" height="40" viewBox="0 0 40 40" fill="none" xmlns="http://www.w3.org/2000/svg">
<path d="M40 36.4999C40 37.8749 38.875 38.9999 37.5 38.9999H2.5C1.125 38.9999 0 37.8749 0 36.4999V21.4999C0 20.1249 0.796875 18.203 1.76875 17.2311L18.2313 0.765527C19.2031 -0.206348 20.7938 -0.206348 21.7656 0.765527L38.2312 17.2311C39.2031 18.203 40 20.1249 40 21.4999V36.4999Z" fill="white"/>
<path d="M26.6657 13.1093H13.3313C12.7782 13.1093 12.3313 13.5562 12.3313 14.1093V38.9999H14.3313V15.1093H25.6657V17.1093H17.3313C16.7782 17.1093 16.3313 17.5562 16.3313 18.1093V22.1093C16.3313 22.6624 16.7782 23.1093 17.3313 23.1093H25.6657V25.1093H17.3313C16.7782 25.1093 16.3313 25.5562 16.3313 26.1093V30.1093C16.3313 30.6624 16.7782 31.1093 17.3313 31.1093H25.6657V33.1093H17.3313C16.7782 33.1093 16.3313 33.5562 16.3313 34.1093C16.3313 34.6624 16.7782 35.1093 17.3313 35.1093H26.6657C27.2188 35.1093 27.6657 34.6624 27.6657 34.1093V30.1093C27.6657 29.5562 27.2188 29.1093 26.6657 29.1093H18.3313V27.1093H26.6657C27.2188 27.1093 27.6657 26.6624 27.6657 26.1093V22.1093C27.6657 21.5562 27.2188 21.1093 26.6657 21.1093H18.3313V19.1093H26.6657C27.2188 19.1093 27.6657 18.6624 27.6657 18.1093V14.1093C27.6657 13.5562 27.2188 13.1093 26.6657 13.1093Z" fill="#18BCF2"/>
</svg>
