<svg width="16" height="16" viewBox="0 0 16 16" fill="none" xmlns="http://www.w3.org/2000/svg">
<path d="M14.9999 6.74518L8.54064 0.285919C8.15941 -0.0953065 7.53493 -0.0953065 7.15371 0.285919L0.693792 6.74518C0.312566 7.12641 0 7.88036 0 8.41983V14.305C0 14.8444 0.441385 15.2858 0.980856 15.2858H7.01443L4.35762 12.629C4.22095 12.6761 4.07513 12.7029 3.92342 12.7029C3.18451 12.7029 2.58292 12.1013 2.58292 11.3624C2.58292 10.6235 3.18451 10.0219 3.92342 10.0219C4.66233 10.0219 5.26393 10.6235 5.26393 11.3624C5.26393 11.5148 5.23712 11.6606 5.19003 11.7972L7.25833 13.8655V6.2881C6.81368 6.0697 6.50634 5.61327 6.50634 5.08557C6.50634 4.34666 7.10793 3.74507 7.84685 3.74507C8.58576 3.74507 9.18735 4.34666 9.18735 5.08557C9.18735 5.61327 8.88001 6.0697 8.43536 6.2881V11.6024L10.4925 9.5452C10.452 9.41703 10.4298 9.28102 10.4298 9.13978C10.4298 8.40087 11.0314 7.79927 11.7703 7.79927C12.5092 7.79927 13.1108 8.40087 13.1108 9.13978C13.1108 9.87869 12.5092 10.4803 11.7703 10.4803C11.6068 10.4803 11.4512 10.4495 11.3067 10.3959L8.43536 13.2672V15.2865H14.7128C15.2523 15.2865 15.6937 14.8451 15.6937 14.3056V8.42048C15.6937 7.88101 15.3818 7.12772 14.9999 6.74584V6.74518Z" fill="#18BCF2"/>
</svg>
